<mxfile host="app.diagrams.net" modified="2020-06-15T20:22:16.386Z" agent="5.0 (X11)" etag="iS-lFnFED9-Ph5DpKX8D" version="13.2.4" type="github">
  <diagram id="RFX-RBJSIVZxYzgN4kvS" name="Page-1">
    <mxGraphModel dx="1355" dy="747" grid="1" gridSize="10" guides="1" tooltips="1" connect="1" arrows="1" fold="1" page="1" pageScale="1" pageWidth="850" pageHeight="1100" math="0" shadow="0">
      <root>
        <mxCell id="0" />
        <mxCell id="1" parent="0" />
        <UserObject label="Display menu of images available on NFS Server" lucidchartObjectId="gKRvSctck2b1" id="lOlRPxrlkIS0HHyydg-t-1">
          <mxCell style="html=1;whiteSpace=wrap;;fontSize=13;fontColor=#000000;spacing=3;strokeOpacity=100;" parent="1" vertex="1">
            <mxGeometry x="737" y="552" width="156" height="72" as="geometry" />
          </mxCell>
        </UserObject>
        <UserObject label="" lucidchartObjectId="LKRvDZ6UtBkK" id="lOlRPxrlkIS0HHyydg-t-2">
          <mxCell style="html=1;jettySize=18;fontSize=11;rounded=1;arcSize=0;edgeStyle=orthogonalEdgeStyle;startArrow=none;;endArrow=block;endFill=1;;exitX=-0.0038461538461538464;exitY=0.5;exitPerimeter=1;entryX=1.0074742355817077;entryY=0.5;entryPerimeter=1;" parent="1" source="lOlRPxrlkIS0HHyydg-t-1" target="lOlRPxrlkIS0HHyydg-t-3" edge="1">
            <mxGeometry width="100" height="100" relative="1" as="geometry">
              <Array as="points" />
            </mxGeometry>
          </mxCell>
        </UserObject>
        <UserObject label="Check if cached?" lucidchartObjectId="t7Rv.~DZCIfZ" id="lOlRPxrlkIS0HHyydg-t-3">
          <mxCell style="html=1;whiteSpace=wrap;rhombus;fontSize=13;fontColor=#000000;spacing=3;strokeOpacity=100;" parent="1" vertex="1">
            <mxGeometry x="396" y="534" width="120" height="108" as="geometry" />
          </mxCell>
        </UserObject>
        <UserObject label="Selection of particular image " lucidchartObjectId="~7RvbBJCC82a" id="lOlRPxrlkIS0HHyydg-t-4">
          <mxCell style="html=1;whiteSpace=wrap;;fontSize=13;fontColor=#000000;spacing=3;strokeOpacity=0;fillOpacity=0;fillColor=#ffffff;" parent="1" vertex="1">
            <mxGeometry x="613" y="528" width="120" height="54" as="geometry" />
          </mxCell>
        </UserObject>
        <UserObject label="" lucidchartObjectId="S-RvnRiLw1Ul" id="lOlRPxrlkIS0HHyydg-t-5">
          <mxCell style="html=1;jettySize=18;fontSize=11;rounded=1;arcSize=0;edgeStyle=orthogonalEdgeStyle;startArrow=none;;endArrow=block;endFill=1;;exitX=-0.007474235581707518;exitY=0.5;exitPerimeter=1;entryX=1.0045871559633028;entryY=0.5;entryPerimeter=1;" parent="1" source="lOlRPxrlkIS0HHyydg-t-3" target="lOlRPxrlkIS0HHyydg-t-7" edge="1">
            <mxGeometry width="100" height="100" relative="1" as="geometry">
              <Array as="points" />
            </mxGeometry>
          </mxCell>
        </UserObject>
        <mxCell id="lOlRPxrlkIS0HHyydg-t-6" value="NO" style="text;html=1;resizable=0;labelBackgroundColor=#ffffff;align=center;verticalAlign=middle;fontColor=#000000;;fontSize=11;" parent="lOlRPxrlkIS0HHyydg-t-5" vertex="1">
          <mxGeometry relative="1" as="geometry" />
        </mxCell>
        <UserObject label="Download the image from NFS server" lucidchartObjectId="5-RvkTyV7ubZ" id="lOlRPxrlkIS0HHyydg-t-7">
          <mxCell style="html=1;whiteSpace=wrap;;fontSize=13;fontColor=#000000;spacing=3;strokeOpacity=100;" parent="1" vertex="1">
            <mxGeometry x="168" y="552" width="131" height="72" as="geometry" />
          </mxCell>
        </UserObject>
        <UserObject label="Deploy the image partition wise in free space available" lucidchartObjectId="O_Rvax~1QcY4" id="lOlRPxrlkIS0HHyydg-t-8">
          <mxCell style="html=1;whiteSpace=wrap;;fontSize=13;fontColor=#000000;spacing=3;strokeOpacity=100;" parent="1" vertex="1">
            <mxGeometry x="168" y="384" width="131" height="72" as="geometry" />
          </mxCell>
        </UserObject>
        <UserObject label="Detect and identify  OS(s) present on hdd" lucidchartObjectId="..RvnZDufUoY" id="lOlRPxrlkIS0HHyydg-t-9">
          <mxCell style="html=1;whiteSpace=wrap;;fontSize=13;fontColor=#000000;spacing=3;strokeOpacity=100;" parent="1" vertex="1">
            <mxGeometry x="168" y="264" width="131" height="60" as="geometry" />
          </mxCell>
        </UserObject>
        <UserObject label="PXE client recieves GRUB and IDOS from TFTP with the help of DHCP" lucidchartObjectId="u7Hy2YTMLkWx" id="lOlRPxrlkIS0HHyydg-t-10">
          <mxCell style="html=1;whiteSpace=wrap;rounded=1;arcSize=50;fontSize=13;fontColor=#000000;spacing=3;strokeOpacity=100;" parent="1" vertex="1">
            <mxGeometry x="480" y="132" width="187" height="72" as="geometry" />
          </mxCell>
        </UserObject>
        <UserObject label="Boots the client to a minimal operating system called IDOS" lucidchartObjectId="y8HyZWqW2R-k" id="lOlRPxrlkIS0HHyydg-t-11">
          <mxCell style="html=1;whiteSpace=wrap;;fontSize=13;fontColor=#000000;spacing=3;strokeOpacity=100;" parent="1" vertex="1">
            <mxGeometry x="737" y="132" width="151" height="72" as="geometry" />
          </mxCell>
        </UserObject>
        <UserObject label="&lt;div&gt;Image &lt;br&gt;&lt;/div&gt;&lt;div&gt;deployment&lt;/div&gt;&lt;div&gt; Task ?&lt;/div&gt;" lucidchartObjectId="0-HygDVUei.N" id="lOlRPxrlkIS0HHyydg-t-12">
          <mxCell style="html=1;whiteSpace=wrap;rhombus;fontSize=13;fontColor=#000000;spacing=3;strokeOpacity=100;" parent="1" vertex="1">
            <mxGeometry x="745" y="366" width="135" height="124" as="geometry" />
          </mxCell>
        </UserObject>
        <UserObject label="IDOS client communicate with web application" lucidchartObjectId="X.HyIwzP-ToA" id="lOlRPxrlkIS0HHyydg-t-13">
          <mxCell style="html=1;whiteSpace=wrap;;fontSize=13;fontColor=#000000;spacing=3;strokeOpacity=100;" parent="1" vertex="1">
            <mxGeometry x="737" y="252" width="151" height="72" as="geometry" />
          </mxCell>
        </UserObject>
        <UserObject label="" lucidchartObjectId="Z~HyvMKMTjP5" id="lOlRPxrlkIS0HHyydg-t-14">
          <mxCell style="html=1;jettySize=18;fontSize=11;rounded=1;arcSize=0;edgeStyle=orthogonalEdgeStyle;startArrow=none;;endArrow=block;endFill=1;;exitX=0.5;exitY=1.0083333333333333;exitPerimeter=1;entryX=0.5;entryY=-0.007331946965970104;entryPerimeter=1;" parent="1" source="lOlRPxrlkIS0HHyydg-t-13" target="lOlRPxrlkIS0HHyydg-t-12" edge="1">
            <mxGeometry width="100" height="100" relative="1" as="geometry">
              <Array as="points" />
            </mxGeometry>
          </mxCell>
        </UserObject>
        <UserObject label="" lucidchartObjectId="daIy400hbusP" id="lOlRPxrlkIS0HHyydg-t-15">
          <mxCell style="html=1;jettySize=18;fontSize=11;rounded=1;arcSize=0;edgeStyle=orthogonalEdgeStyle;startArrow=none;;endArrow=block;endFill=1;;exitX=0.5;exitY=1.0083333333333333;exitPerimeter=1;entryX=0.5;entryY=-0.008333333333333333;entryPerimeter=1;" parent="1" source="lOlRPxrlkIS0HHyydg-t-11" target="lOlRPxrlkIS0HHyydg-t-13" edge="1">
            <mxGeometry width="100" height="100" relative="1" as="geometry">
              <Array as="points" />
            </mxGeometry>
          </mxCell>
        </UserObject>
        <UserObject label="" lucidchartObjectId="PdIyO0bsKv3X" id="lOlRPxrlkIS0HHyydg-t-16">
          <mxCell style="html=1;jettySize=18;fontSize=13;fontColor=#000000;rounded=1;arcSize=0;edgeStyle=orthogonalEdgeStyle;startArrow=none;;endArrow=block;endFill=1;;exitX=-0.007331946965970176;exitY=0.5;exitPerimeter=1;entryX=1.0045871559633028;entryY=0.5;entryPerimeter=1;" parent="1" source="lOlRPxrlkIS0HHyydg-t-12" target="lOlRPxrlkIS0HHyydg-t-18" edge="1">
            <mxGeometry width="100" height="100" relative="1" as="geometry">
              <Array as="points" />
            </mxGeometry>
          </mxCell>
        </UserObject>
        <mxCell id="lOlRPxrlkIS0HHyydg-t-17" value="Yes" style="text;html=1;resizable=0;labelBackgroundColor=#ffffff;align=center;verticalAlign=middle;fontColor=#000000;;fontSize=13.333333333333332;" parent="lOlRPxrlkIS0HHyydg-t-16" vertex="1">
          <mxGeometry x="-0.17757536353543657" relative="1" as="geometry" />
        </mxCell>
        <UserObject label="Image chosen through web app will be deployed" lucidchartObjectId="_eIy9ecO3xXT" id="lOlRPxrlkIS0HHyydg-t-18">
          <mxCell style="html=1;whiteSpace=wrap;;fontSize=13;fontColor=#000000;spacing=3;strokeOpacity=100;" parent="1" vertex="1">
            <mxGeometry x="528" y="392" width="131" height="72" as="geometry" />
          </mxCell>
        </UserObject>
        <UserObject label="" lucidchartObjectId="kgIyRe3__U0~" id="lOlRPxrlkIS0HHyydg-t-19">
          <mxCell style="html=1;jettySize=18;fontSize=11;rounded=1;arcSize=0;edgeStyle=orthogonalEdgeStyle;startArrow=none;;endArrow=block;endFill=1;;exitX=0.5;exitY=1.0083333333333333;exitPerimeter=1;entryX=1.0074742355817077;entryY=0.5;entryPerimeter=1;" parent="1" source="lOlRPxrlkIS0HHyydg-t-18" target="lOlRPxrlkIS0HHyydg-t-3" edge="1">
            <mxGeometry width="100" height="100" relative="1" as="geometry">
              <Array as="points" />
            </mxGeometry>
          </mxCell>
        </UserObject>
        <UserObject label="" lucidchartObjectId="niIytwW1RxHQ" id="lOlRPxrlkIS0HHyydg-t-20">
          <mxCell style="html=1;jettySize=18;fontSize=11;rounded=1;arcSize=0;edgeStyle=orthogonalEdgeStyle;startArrow=none;;endArrow=block;endFill=1;;exitX=0.5000000000000002;exitY=-0.008333333333333333;exitPerimeter=1;entryX=0.5;entryY=1.0083333333333333;entryPerimeter=1;" parent="1" source="lOlRPxrlkIS0HHyydg-t-7" target="lOlRPxrlkIS0HHyydg-t-8" edge="1">
            <mxGeometry width="100" height="100" relative="1" as="geometry">
              <Array as="points" />
            </mxGeometry>
          </mxCell>
        </UserObject>
        <UserObject label="" lucidchartObjectId="HjIyhOUGoYDS" id="lOlRPxrlkIS0HHyydg-t-21">
          <mxCell style="html=1;jettySize=18;fontSize=11;rounded=1;arcSize=0;edgeStyle=orthogonalEdgeStyle;startArrow=none;;endArrow=block;endFill=1;;exitX=0.5;exitY=-0.007474235581707549;exitPerimeter=1;entryX=1.0045871559633028;entryY=0.5;entryPerimeter=1;" parent="1" source="lOlRPxrlkIS0HHyydg-t-3" target="lOlRPxrlkIS0HHyydg-t-8" edge="1">
            <mxGeometry width="100" height="100" relative="1" as="geometry">
              <Array as="points" />
            </mxGeometry>
          </mxCell>
        </UserObject>
        <mxCell id="lOlRPxrlkIS0HHyydg-t-22" value="YES" style="text;html=1;resizable=0;labelBackgroundColor=#ffffff;align=center;verticalAlign=middle;fontColor=#000000;;fontSize=11;" parent="lOlRPxrlkIS0HHyydg-t-21" vertex="1">
          <mxGeometry x="-0.835818636352747" relative="1" as="geometry" />
        </mxCell>
        <UserObject label="" lucidchartObjectId="rnIyY9OPDbWm" id="lOlRPxrlkIS0HHyydg-t-23">
          <mxCell style="html=1;jettySize=18;fontSize=11;rounded=1;arcSize=0;edgeStyle=orthogonalEdgeStyle;startArrow=none;;endArrow=block;endFill=1;;exitX=0.5;exitY=-0.008333333333333333;exitPerimeter=1;entryX=0.5;entryY=1.0099999999999993;entryPerimeter=1;" parent="1" source="lOlRPxrlkIS0HHyydg-t-8" target="lOlRPxrlkIS0HHyydg-t-9" edge="1">
            <mxGeometry width="100" height="100" relative="1" as="geometry">
              <Array as="points" />
            </mxGeometry>
          </mxCell>
        </UserObject>
        <UserObject label="" lucidchartObjectId="TzIyaDYoj~pm" id="lOlRPxrlkIS0HHyydg-t-24">
          <mxCell style="html=1;jettySize=18;fontSize=11;fontColor=#000000;rounded=1;arcSize=0;edgeStyle=orthogonalEdgeStyle;startArrow=none;;endArrow=block;endFill=1;;exitX=0.5;exitY=1.0073319469659698;exitPerimeter=1;entryX=0.4846153846153846;entryY=-0.008333333333333392;entryPerimeter=1;" parent="1" source="lOlRPxrlkIS0HHyydg-t-12" target="lOlRPxrlkIS0HHyydg-t-1" edge="1">
            <mxGeometry width="100" height="100" relative="1" as="geometry">
              <Array as="points" />
            </mxGeometry>
          </mxCell>
        </UserObject>
        <mxCell id="lOlRPxrlkIS0HHyydg-t-25" value="No" style="text;html=1;resizable=0;labelBackgroundColor=#ffffff;align=center;verticalAlign=middle;fontColor=#000000;;fontSize=11;" parent="lOlRPxrlkIS0HHyydg-t-24" vertex="1">
          <mxGeometry relative="1" as="geometry" />
        </mxCell>
        <UserObject label="" lucidchartObjectId="WBIy5AH2DrIR" id="lOlRPxrlkIS0HHyydg-t-26">
          <mxCell style="html=1;jettySize=18;fontSize=11;rounded=1;arcSize=0;edgeStyle=orthogonalEdgeStyle;startArrow=none;;endArrow=block;endFill=1;;exitX=1.0032060619541825;exitY=0.5;exitPerimeter=1;entryX=-0.003968253968253968;entryY=0.5;entryPerimeter=1;" parent="1" source="lOlRPxrlkIS0HHyydg-t-10" target="lOlRPxrlkIS0HHyydg-t-11" edge="1">
            <mxGeometry width="100" height="100" relative="1" as="geometry">
              <Array as="points" />
            </mxGeometry>
          </mxCell>
        </UserObject>
        <UserObject label="Reboot and select the OS to boot among list of OS(s) displayed by network GRUB" lucidchartObjectId="8sKy0zE3EKF1" id="lOlRPxrlkIS0HHyydg-t-27">
          <mxCell style="html=1;whiteSpace=wrap;;fontSize=13;fontColor=#000000;spacing=3;strokeOpacity=100;" parent="1" vertex="1">
            <mxGeometry x="168" y="120" width="131" height="108" as="geometry" />
          </mxCell>
        </UserObject>
        <UserObject label="" lucidchartObjectId="zuKymwuy3BKp" id="lOlRPxrlkIS0HHyydg-t-28">
          <mxCell style="html=1;jettySize=18;fontSize=11;rounded=1;arcSize=0;edgeStyle=orthogonalEdgeStyle;startArrow=none;;endArrow=block;endFill=1;;exitX=0.5;exitY=-0.009999999999999995;exitPerimeter=1;entryX=0.5;entryY=1.0055555555555558;entryPerimeter=1;" parent="1" source="lOlRPxrlkIS0HHyydg-t-9" target="lOlRPxrlkIS0HHyydg-t-27" edge="1">
            <mxGeometry width="100" height="100" relative="1" as="geometry">
              <Array as="points" />
            </mxGeometry>
          </mxCell>
        </UserObject>
      </root>
    </mxGraphModel>
  </diagram>
</mxfile>
